<?xml version="1.0"?>
<svg xmlns="http://www.w3.org/2000/svg" height="512px" viewBox="0 0 512 512.00067" width="512px"><g><path d="m107.867188 401.578125 34.105468 10.417969c2.230469.679687 4.507813 1.019531 6.789063 1.019531 2.542969 0 5.082031-.425781 7.539062-1.269531 6.863281-2.371094 12.292969-7.90625 14.523438-14.816406l29.261719-90.78125 62.082031-43.761719 37.46875 69.792969c2.851562 5.3125 7.585937 9.257812 13.328125 11.109374l96.339844 31.046876-2.121094 10.519531c-2.539063 12.585937 5.410156 25.007812 17.714844 27.683593 12.816406 2.785157 25.152343-5.570312 27.675781-18.078124l6.304687-31.257813c2.332032-11.585937-4.386718-23.054687-15.632812-26.675781l-107.046875-34.5c-.074219-.023438-.136719-.078125-.175781-.148438l-43.941407-81.847656-24.601562-103.847656 43.757812 14.601562 32.695313 74.917969c5.121094 11.746094 18.785156 17.121094 30.539062 11.988281 11.71875-5.117187 17.09375-18.820312 11.976563-30.546875l-9.070313-20.78125c-1.65625-3.796875-6.074218-5.527343-9.875-3.875-3.792968 1.65625-5.527344 6.078125-3.871094 9.875l9.070313 20.78125c1.808594 4.148438-.089844 8.992188-4.234375 10.800781-4.132812 1.8125-8.976562-.085937-10.789062-4.242187l-32.976563-75.5625c-1.519531-3.476563-4.453125-6.160156-8.054687-7.363281l-57.195313-19.082032c-2.582031-.863281-5.425781-.257812-7.433594 1.578126-2.011719 1.835937-2.863281 4.617187-2.238281 7.265624l27.929688 117.90625c.148437.636719.382812 1.246094.6875 1.820313l44.410156 82.714844c1.882812 3.503906 5.003906 6.105469 8.789062 7.324219l107.046875 34.5c3.980469 1.28125 6.355469 5.335937 5.527344 9.433593l-6.300781 31.257813c-.890625 4.394531-5.21875 7.382812-9.78125 6.390625-4.347656-.945313-7.132813-5.464844-6.203125-10.066407l3.445312-17.082031c.753907-3.738281-1.421875-7.449219-5.050781-8.621093l-102.714844-33.101563c-2.03125-.652344-3.703125-2.050781-4.714844-3.929687l-49.863281-92.875c-.339843-.628907-.59375-1.296876-.757812-1.988282l-34.894531-147.339844c-.6875-2.894531.25-5.9375 2.441406-7.945312 2.175781-1.988281 5.285156-2.667969 8.121094-1.726562l93.054687 31.046874c2.199219.734376 3.996094 2.375 4.921875 4.496094l14.957031 34.277344c1.65625 3.792969 6.078125 5.53125 9.875 3.871094 3.792969-1.65625 5.527344-6.074219 3.871094-9.871094l-14.957031-34.277344c-2.621094-6.007812-7.695313-10.644531-13.917969-12.722656l-87.328125-29.136719c3.996094-5.347656 6.519531-11.675781 7.292969-18.488281 2.363281-20.871094-12.6875-39.785156-33.558594-42.160156-10.105469-1.144532-20.0625 1.710937-28.019531 8.050781-7.960938 6.335937-12.972656 15.398437-14.117188 25.511719-2.335937 20.59375 12.285156 39.277344 32.71875 42.054687-.128906.558594-.234375 1.125-.320312 1.695313-.496094 1.125.726562-3.191406-18.417969 73.339844l-68.421875 40.445312c-11.011719 6.511719-14.671875 20.765625-8.164062 31.78125 6.46875 10.941406 20.707031 14.714844 31.773437 8.171875l76.769531-45.386719c3.503906-2.074218 6.394532-5.058594 8.386719-8.566406l9.722656 41.058594-76.996093 54.277344c-4.082032 2.875-7.175782 7.082031-8.714844 11.84375l-9.703125 30.105468c-1.269531 3.941406.894531 8.167969 4.835937 9.441406.765625.246094 1.542969.363282 2.304688.363282 3.167968 0 6.113281-2.023438 7.136718-5.203125l9.703126-30.105469c.542968-1.683594 1.636718-3.167969 3.082031-4.183594l72.082031-50.816406c1.117188 4.328125 2.753906 6.226562 7.269531 14.945312l-65.625 46.261719c-1.328125.9375-2.316406 2.28125-2.816406 3.828125l-30.03125 93.167969c-.800781 2.476563-2.671875 4.386719-5.136719 5.238281-1.640625.5625-3.386718.59375-5.054687.082032l-34.105469-10.417969c-4.324219-1.320313-6.773438-5.917969-5.453125-10.242188 3.847656-12.621093 21.734375-.234375 29.5625.457031 3.925781 1.199219 8.070313-.96875 9.328125-4.871093l7.386719-22.910157c1.269531-3.941406-.898438-8.167968-4.839844-9.4375-3.9375-1.269531-8.167969.894532-9.4375 4.839844l-5.117187 15.878906-12.269532-3.75c-12.265625-3.746093-25.214844 3.148438-28.957031 15.417969-3.730469 12.234375 3.183594 25.226563 15.414063 28.964844zm87.007812-366.082031c1.34375-11.878906 11.402344-20.496094 22.890625-20.496094 13.828125 0 24.546875 12.039062 22.996094 25.71875-.988281 8.734375-6.679688 15.671875-14.125 18.757812-.074219.027344-.148438.058594-.222657.089844-16.105468 6.472656-33.507812-6.683594-31.539062-24.070312zm27.183594 132.429687c-.527344 2.113281-1.90625 3.960938-3.777344 5.070313l-76.773438 45.386718c-3.96875 2.347657-8.96875.925782-11.226562-2.890624-2.300781-3.894532-1.007812-8.933594 2.882812-11.234376l71.121094-42.046874c1.726563-1.019532 2.976563-2.691407 3.460938-4.640626l11.21875-44.949218 8.230468 34.734375zm0 0" data-original="#000000" class="active-path" data-old_color="#000000" fill="#FFFFFF"/><path d="m504.5 427h-282.863281c-3.140625-8.644531-11.4375-14.839844-21.15625-14.839844s-18.015625 6.195313-21.15625 14.839844h-171.824219c-4.144531 0-7.5 3.359375-7.5 7.5v70c0 4.144531 3.355469 7.5 7.5 7.5h497c4.144531 0 7.5-3.355469 7.5-7.5v-70c0-4.140625-3.355469-7.5-7.5-7.5zm-304.019531.160156c4.136719 0 7.5 3.363282 7.5 7.5 0 4.136719-3.363281 7.5-7.5 7.5s-7.5-3.363281-7.5-7.5c0-4.136718 3.363281-7.5 7.5-7.5zm-185.480469 69.839844v-20h49.332031c4.144531 0 7.5-3.355469 7.5-7.5 0-4.140625-3.355469-7.5-7.5-7.5h-49.332031v-20h164.210938c3.050781 8.8125 11.433593 15.160156 21.269531 15.160156 9.835937 0 18.21875-6.347656 21.269531-15.160156h275.25v20h-72.117188c-3.09375-8.730469-11.433593-15-21.214843-15-9.777344 0-18.117188 6.269531-21.214844 15h-286.453125c-4.144531 0-7.5 3.359375-7.5 7.5 0 4.144531 3.355469 7.5 7.5 7.5h286.453125c3.097656 8.730469 11.4375 15 21.214844 15 9.78125 0 18.121093-6.269531 21.214843-15h72.117188v20zm381.167969-27.539062c.023437-4.117188 3.378906-7.460938 7.5-7.460938 4.136719 0 7.5 3.367188 7.5 7.5 0 4.136719-3.363281 7.5-7.5 7.5-4.121094 0-7.476563-3.339844-7.5-7.460938 0-.011718 0-.023437 0-.039062 0-.011719 0-.023438 0-.039062zm0 0" data-original="#000000" class="active-path" data-old_color="#000000" fill="#FFFFFF"/></g> </svg>
