<?xml version="1.0"?>
<svg xmlns="http://www.w3.org/2000/svg" id="Capa_1" enable-background="new 0 0 512.172 512.172" height="512px" viewBox="0 0 512.172 512.172" width="512px"><g><g><g><g><path d="m476.923 248.586h-23.422v-184.392c0-21.752-17.697-39.449-39.449-39.449h-150.788v-17.245c0-4.143-3.357-7.5-7.5-7.5s-7.5 3.357-7.5 7.5v17.245h-150.789c-21.752 0-39.449 17.697-39.449 39.449v184.392h-22.777c-4.143 0-7.5 3.357-7.5 7.5s3.357 7.5 7.5 7.5h22.776v184.392c0 21.752 17.697 39.449 39.449 39.449h150.789v17.245c0 4.143 3.357 7.5 7.5 7.5s7.5-3.357 7.5-7.5v-17.245h150.788c21.752 0 39.449-17.697 39.449-39.449v-184.392h23.422c4.143 0 7.5-3.357 7.5-7.5s-3.357-7.5-7.499-7.5zm-38.422 0h-3.691c-4.143 0-7.5 3.357-7.5 7.5s3.357 7.5 7.5 7.5h3.691v184.392c0 13.481-10.968 24.449-24.449 24.449h-150.788v-6.195c0-4.143-3.357-7.5-7.5-7.5s-7.5 3.357-7.5 7.5v6.195h-150.789c-13.481 0-24.449-10.968-24.449-24.449v-184.392h4.337c4.143 0 7.5-3.357 7.5-7.5s-3.357-7.5-7.5-7.5h-4.337v-184.392c0-13.481 10.968-24.449 24.449-24.449h150.789v6.195c0 4.143 3.357 7.5 7.5 7.5s7.5-3.357 7.5-7.5v-6.195h150.788c13.481 0 24.449 10.968 24.449 24.449z" data-original="#000000" class="active-path" data-old_color="#000000" fill="#FFFFFF"/><path d="m390.883 65.181h-270.239c-11.97 0-21.708 9.738-21.708 21.708v338.395c0 11.97 9.738 21.708 21.708 21.708h270.239c11.97 0 21.708-9.738 21.708-21.708v-102.865c0-4.143-3.357-7.5-7.5-7.5s-7.5 3.357-7.5 7.5v102.864c0 3.699-3.009 6.708-6.708 6.708h-77.013v-39.107c0-7.984-2.373-15.702-6.63-22.249 36.705-1.116 66.226-31.301 66.226-68.272l-.14-115.864c0-50.669-41.223-91.892-91.892-91.892h-51.347c-11.965 0-23.607 2.268-34.602 6.739-3.837 1.561-5.683 5.936-4.122 9.772s5.936 5.684 9.772 4.122c9.192-3.738 18.933-5.634 28.951-5.634h51.347c42.398 0 76.892 34.493 76.892 76.892v55.162c-41.617 1.859-74.417-2.6-97.591-13.279-19.587-9.027-27.93-20.626-31.479-28.765-1.788-4.105-5.82-6.588-10.302-6.325-4.479.265-8.212 3.212-9.509 7.51-4.995 16.546-16.858 27.754-35.26 33.313-8.055 2.434-15.73 3.245-20.989 3.483v-51.1c0-19.896 7.571-38.771 21.32-53.143 2.863-2.993 2.758-7.741-.235-10.604-2.993-2.862-7.74-2.758-10.604.235-16.432 17.178-25.48 39.733-25.48 63.512v46.281c-.046-.032-.14 69.583-.14 69.583 0 36.97 29.521 67.155 66.226 68.272-4.257 6.547-6.63 14.264-6.63 22.249v39.107h-77.009c-3.699 0-6.708-3.009-6.708-6.708v-338.392c0-3.699 3.009-6.708 6.708-6.708h270.239c3.699 0 6.708 3.009 6.708 6.708v200.695c0 4.143 3.357 7.5 7.5 7.5s7.5-3.357 7.5-7.5v-200.695c.001-11.97-9.737-21.708-21.707-21.708zm-92.013 366.809h-15.746v-11.636l2.854-2.308c3.222-2.604 3.722-7.326 1.117-10.547-2.602-3.222-7.324-3.722-10.547-1.117l-5.639 4.559c-1.762 1.424-2.785 3.567-2.785 5.832v15.217h-24.722v-15.217c0-2.265-1.023-4.408-2.785-5.832l-5.639-4.559c-3.223-2.605-7.945-2.104-10.547 1.117-2.604 3.221-2.104 7.943 1.117 10.547l2.854 2.308v11.636h-15.75v-39.106c0-8.269 4.009-16.097 10.725-20.939 3.375-2.435 7.329-4.027 11.437-4.605 1.311-.185 2.717-.367 4.051-.642 1.542 1.128 3.218 2.106 5.019 2.921 3.775 1.714 7.827 2.57 11.878 2.57 4.049 0 8.098-.855 11.866-2.566 1.806-.817 3.484-1.796 5.028-2.925 1.1.227 2.254.39 3.459.559 4.337.606 8.456 2.11 12.031 4.688 6.715 4.843 10.724 12.671 10.724 20.939zm-35.57-77.069c-.577.38-1.187.733-1.863 1.039-3.555 1.612-7.8 1.612-11.36-.004-.672-.304-1.278-.655-1.853-1.033.034-.951.035-9.356.035-9.356h15.007c-.001-.001 0 8.403.034 9.354zm95.166-77.178v24.62c0 29.403-23.922 53.325-53.325 53.325h-15.339c-3.496-1.573-7.204-2.668-11.001-3.203l-.536-.075v-6.844h1.98c37.091 0 67.634-28.572 70.78-64.86 2.654-.611 5.147-1.633 7.441-2.963zm-203.798-25.195c6.078-.32 14.454-1.29 23.368-3.928 19.942-5.902 34.373-17.661 42.236-34.275 6.02 9.101 16.378 19.453 34.185 27.659 21.735 10.018 50.663 15.063 86.224 15.063 5.213 0 10.584-.12 16.083-.339-1.111 5.506-5.985 9.666-11.813 9.666h-1.158c-4.143 0-7.5 3.357-7.5 7.5 0 18.579-8.991 36.325-24.488 46.922-9.26 6.332-20.341 9.751-31.559 9.751h-48.967c-11.148 0-22.163-3.376-31.389-9.635-15.595-10.581-24.656-28.384-24.658-47.038 0-4.142-3.358-7.5-7.5-7.5h-1.159c-6.646 0-12.053-5.407-12.053-12.053 0-.611.06-1.206.148-1.793zm-1.611 49.815v-24.621c2.294 1.33 4.787 2.352 7.441 2.963 3.146 36.288 33.689 64.86 70.78 64.86h1.979v6.844l-.535.075c-3.798.535-7.505 1.631-11.001 3.203h-15.339c-29.403.001-53.325-23.92-53.325-53.324z" data-original="#000000" class="active-path" data-old_color="#000000" fill="#FFFFFF"/><path d="m237.136 302.286c3.172 7.5 10.483 12.346 18.626 12.346s15.453-4.846 18.625-12.346c1.614-3.815-.171-8.216-3.985-9.829-3.815-1.614-8.216.171-9.829 3.985-.819 1.938-2.708 3.189-4.811 3.189-2.104 0-3.992-1.252-4.812-3.189-1.614-3.816-6.017-5.601-9.829-3.985-3.814 1.613-5.6 6.014-3.985 9.829z" data-original="#000000" class="active-path" data-old_color="#000000" fill="#FFFFFF"/><path d="m231.67 280.857c4.143 0 7.5-3.357 7.5-7.5v-10.374c0-4.143-3.357-7.5-7.5-7.5s-7.5 3.357-7.5 7.5v10.374c0 4.143 3.357 7.5 7.5 7.5z" data-original="#000000" class="active-path" data-old_color="#000000" fill="#FFFFFF"/><path d="m279.853 280.857c4.143 0 7.5-3.357 7.5-7.5v-10.374c0-4.143-3.357-7.5-7.5-7.5s-7.5 3.357-7.5 7.5v10.374c0 4.143 3.357 7.5 7.5 7.5z" data-original="#000000" class="active-path" data-old_color="#000000" fill="#FFFFFF"/></g></g></g></g> </svg>
